<svg width="44" height="13" viewBox="0 0 44 13" fill="none" xmlns="http://www.w3.org/2000/svg">
<path d="M7.688 9.856V12H0.28V0.912H2.776V9.856H7.688ZM11.0791 6.448C11.0791 6.992 11.1431 7.48267 11.2711 7.92C11.4098 8.35733 11.6018 8.736 11.8471 9.056C12.1031 9.36533 12.4125 9.60533 12.7751 9.776C13.1378 9.94667 13.5538 10.032 14.0231 10.032C14.4818 10.032 14.8925 9.94667 15.2551 9.776C15.6285 9.60533 15.9378 9.36533 16.1831 9.056C16.4391 8.736 16.6311 8.35733 16.7591 7.92C16.8978 7.48267 16.9671 6.992 16.9671 6.448C16.9671 5.904 16.8978 5.41333 16.7591 4.976C16.6311 4.528 16.4391 4.14933 16.1831 3.84C15.9378 3.52 15.6285 3.27467 15.2551 3.104C14.8925 2.93333 14.4818 2.848 14.0231 2.848C13.5538 2.848 13.1378 2.93867 12.7751 3.12C12.4125 3.29067 12.1031 3.536 11.8471 3.856C11.6018 4.16533 11.4098 4.544 11.2711 4.992C11.1431 5.42933 11.0791 5.91467 11.0791 6.448ZM19.5431 6.448C19.5431 7.39733 19.3991 8.23467 19.1111 8.96C18.8338 9.67467 18.4498 10.2773 17.9591 10.768C17.4685 11.248 16.8818 11.6107 16.1991 11.856C15.5271 12.1013 14.8018 12.224 14.0231 12.224C13.2658 12.224 12.5511 12.1013 11.8791 11.856C11.2071 11.6107 10.6205 11.248 10.1191 10.768C9.61779 10.2773 9.22313 9.67467 8.93513 8.96C8.64713 8.23467 8.50313 7.39733 8.50313 6.448C8.50313 5.49867 8.65246 4.66667 8.95113 3.952C9.24979 3.22667 9.64979 2.61867 10.1511 2.128C10.6631 1.63733 11.2498 1.26933 11.9111 1.024C12.5831 0.778666 13.2871 0.655999 14.0231 0.655999C14.7805 0.655999 15.4951 0.778666 16.1671 1.024C16.8391 1.26933 17.4258 1.63733 17.9271 2.128C18.4285 2.61867 18.8231 3.22667 19.1111 3.952C19.3991 4.66667 19.5431 5.49867 19.5431 6.448ZM27.0318 2.832C25.8691 2.832 25.0264 3.15733 24.5038 3.808C23.9918 4.448 23.7358 5.328 23.7358 6.448C23.7358 6.992 23.7998 7.488 23.9278 7.936C24.0558 8.37333 24.2478 8.752 24.5038 9.072C24.7598 9.392 25.0798 9.64267 25.4638 9.824C25.8478 9.99467 26.2958 10.08 26.8078 10.08C27.0851 10.08 27.3198 10.0747 27.5118 10.064C27.7144 10.0533 27.8904 10.032 28.0398 10V6.144H30.5358V11.632C30.2371 11.7493 29.7571 11.872 29.0958 12C28.4344 12.1387 27.6184 12.208 26.6478 12.208C25.8158 12.208 25.0584 12.08 24.3758 11.824C23.7038 11.568 23.1278 11.1947 22.6478 10.704C22.1678 10.2133 21.7944 9.61067 21.5278 8.896C21.2718 8.18133 21.1438 7.36533 21.1438 6.448C21.1438 5.52 21.2878 4.69867 21.5758 3.984C21.8638 3.26933 22.2584 2.66667 22.7598 2.176C23.2611 1.67467 23.8478 1.296 24.5198 1.04C25.2024 0.783999 25.9278 0.655999 26.6958 0.655999C27.2184 0.655999 27.6878 0.693333 28.1038 0.768C28.5304 0.831999 28.8931 0.911999 29.1918 1.008C29.5011 1.09333 29.7518 1.184 29.9438 1.28C30.1464 1.376 30.2904 1.45067 30.3758 1.504L29.6558 3.504C29.3144 3.32267 28.9198 3.168 28.4718 3.04C28.0344 2.90133 27.5544 2.832 27.0318 2.832ZM34.9541 6.448C34.9541 6.992 35.0181 7.48267 35.1461 7.92C35.2848 8.35733 35.4768 8.736 35.7221 9.056C35.9781 9.36533 36.2875 9.60533 36.6501 9.776C37.0128 9.94667 37.4288 10.032 37.8981 10.032C38.3568 10.032 38.7675 9.94667 39.1301 9.776C39.5035 9.60533 39.8128 9.36533 40.0581 9.056C40.3141 8.736 40.5061 8.35733 40.6341 7.92C40.7728 7.48267 40.8421 6.992 40.8421 6.448C40.8421 5.904 40.7728 5.41333 40.6341 4.976C40.5061 4.528 40.3141 4.14933 40.0581 3.84C39.8128 3.52 39.5035 3.27467 39.1301 3.104C38.7675 2.93333 38.3568 2.848 37.8981 2.848C37.4288 2.848 37.0128 2.93867 36.6501 3.12C36.2875 3.29067 35.9781 3.536 35.7221 3.856C35.4768 4.16533 35.2848 4.544 35.1461 4.992C35.0181 5.42933 34.9541 5.91467 34.9541 6.448ZM43.4181 6.448C43.4181 7.39733 43.2741 8.23467 42.9861 8.96C42.7088 9.67467 42.3248 10.2773 41.8341 10.768C41.3435 11.248 40.7568 11.6107 40.0741 11.856C39.4021 12.1013 38.6768 12.224 37.8981 12.224C37.1408 12.224 36.4261 12.1013 35.7541 11.856C35.0821 11.6107 34.4955 11.248 33.9941 10.768C33.4928 10.2773 33.0981 9.67467 32.8101 8.96C32.5221 8.23467 32.3781 7.39733 32.3781 6.448C32.3781 5.49867 32.5275 4.66667 32.8261 3.952C33.1248 3.22667 33.5248 2.61867 34.0261 2.128C34.5381 1.63733 35.1248 1.26933 35.7861 1.024C36.4581 0.778666 37.1621 0.655999 37.8981 0.655999C38.6555 0.655999 39.3701 0.778666 40.0421 1.024C40.7141 1.26933 41.3008 1.63733 41.8021 2.128C42.3035 2.61867 42.6981 3.22667 42.9861 3.952C43.2741 4.66667 43.4181 5.49867 43.4181 6.448Z" fill="white"/>
</svg>
